<?xml version="1.0" encoding="utf-8"?>
<!-- Generator: Adobe Illustrator 27.2.0, SVG Export Plug-In . SVG Version: 6.00 Build 0)  -->
<svg version="1.1" id="Calque_1" xmlns="http://www.w3.org/2000/svg" xmlns:xlink="http://www.w3.org/1999/xlink" x="0px" y="0px"
	 viewBox="0 0 55.4 55.6" style="enable-background:new 0 0 55.4 55.6;" xml:space="preserve">
<style type="text/css">
	.st0{fill:#D0E5EE;}
</style>
<circle class="st0" cx="27.8" cy="25.8" r="9.5"/>
<path class="st0" d="M27.8,0C12.5,0,0,12.5,0,27.8c0,9.3,4.6,18,12.4,23.2c4.5,3,9.9,4.6,15.3,4.6S38.5,54,43,51
	c7.8-5.2,12.4-13.8,12.4-23.2C55.6,12.5,43.1,0,27.8,0z M42,49.3L42,49.3c-3.3-4.7-8.5-7.7-14.2-7.7s-10.9,3-14.2,7.7l0,0
	C6.3,44.5,2,36.4,2,27.8C2,13.6,13.6,2,27.8,2s25.8,11.6,25.8,25.8C53.6,36.4,49.3,44.5,42,49.3z"/>
</svg>
